<?xml version="1.0" encoding="utf-8"?>
<!-- Generator: Adobe Illustrator 24.2.1, SVG Export Plug-In . SVG Version: 6.00 Build 0)  -->
<svg version="1.1" id="Layer_1" xmlns="http://www.w3.org/2000/svg" xmlns:xlink="http://www.w3.org/1999/xlink" x="0px" y="0px"
	 viewBox="0 0 88.2 45.9" style="enable-background:new 0 0 88.2 45.9;" xml:space="preserve">
<g>
	<path d="M10.17,16.48c-0.75,2.25-1.27,4.25-1.63,6.5c-0.09,0.49-0.18,0.8-0.54,0.8c-1.07,0-2.84-0.33-2.84-1.32
		c0-1.26,2.7-10.34,4-13.33c0.57-1.32,1.29-1.95,1.41-2.03c-2.2,0.33-5.06,1.81-5.06,4.77c0,1.73,0.57,2.11,0.57,2.41
		c0,0.17-0.11,0.27-0.36,0.27c-1.09,0-3.34-1.29-3.34-3.59c0-3.81,4.02-5.79,9.26-5.79c4.63,0,7.2,2,7.2,4.97
		c0,2.72-2.43,4.83-4.81,5.6c1.16,0.82,1.04,5.05,2.22,5.05c0.43,0,0.73-0.25,0.93-0.25c0.11,0,0.2,0.11,0.2,0.22
		c0,0.58-1.32,2.77-3.09,2.77c-4.04,0-0.41-7.38-3.79-7.38C10.33,16.15,10.26,16.2,10.17,16.48z M15.55,9.54
		c0-1.62-1.16-2.41-1.86-2.41c-0.23,0-0.34,0.19-0.5,0.55c-0.5,1.04-1.48,3.84-2.23,6.12c-0.07,0.19-0.07,0.3-0.07,0.41
		c0,0.22,0.16,0.3,0.43,0.3C13.57,14.5,15.55,11.98,15.55,9.54z"/>
	<path d="M25.65,16.77c0.18,0,0.36,0.22,0.36,0.47c0,0.49-1.29,3.35-4.86,3.35c-1.54,0-2.84-1.13-2.84-3.13
		c0-3.4,3.06-6.83,6.18-6.83c1.75,0,2.43,1.1,2.43,2.17c0,2.11-2.86,3.87-4.9,4.33c0.14,0.58,0.5,0.91,1.16,0.91
		C24.72,18.03,25.31,16.77,25.65,16.77z M22.04,15.56c1.48-0.49,2.7-1.78,2.7-2.63c0-0.33-0.16-0.47-0.39-0.47
		C23.63,12.46,22.41,13.89,22.04,15.56z"/>
	<path d="M32.94,12.96c-0.34,0-1.09,0.6-1.75,1.84c-0.79,1.51-1.73,3.9-1.73,5.08c0,0.41-0.07,0.66-0.43,0.66
		c-1.07,0-2.54-0.33-2.54-1.32c0-1.98,2.07-5.93,2.07-8.12c0-0.27,0.2-0.47,0.64-0.47c2.02,0,2.11,2,2.2,2s1.61-2,3.66-2
		c1.13,0,1.73,0.71,1.73,1.81c0,1.87-1.86,4.31-1.86,6.97c0,1.37,0.73,2.44,2.11,2.44c0.7,0,1.02-0.3,1.2-0.3
		c0.16,0,0.29,0.14,0.29,0.33c0,0.55-1.43,2.36-3.86,2.36c-1.91,0-3.43-1.51-3.43-3.73c0-3.21,2.07-6.01,2.07-7.11
		C33.31,13.15,33.19,12.96,32.94,12.96z"/>
	<path d="M44.09,16.77c0.18,0,0.36,0.22,0.36,0.47c0,0.49-1.29,3.35-4.86,3.35c-1.54,0-2.84-1.13-2.84-3.13
		c0-3.4,3.06-6.83,6.18-6.83c1.75,0,2.43,1.1,2.43,2.17c0,2.11-2.86,3.87-4.9,4.33c0.14,0.58,0.5,0.91,1.16,0.91
		C43.16,18.03,43.75,16.77,44.09,16.77z M40.48,15.56c1.48-0.49,2.7-1.78,2.7-2.63c0-0.33-0.16-0.47-0.39-0.47
		C42.07,12.46,40.84,13.89,40.48,15.56z"/>
	<path d="M22.5,33.08c-0.75,2.25-1.27,4.25-1.63,6.5c-0.09,0.49-0.18,0.8-0.54,0.8c-1.07,0-2.84-0.33-2.84-1.32
		c0-1.26,2.7-10.34,4-13.33c0.57-1.32,1.29-1.95,1.41-2.03c-2.2,0.33-5.06,1.81-5.06,4.77c0,1.73,0.57,2.11,0.57,2.41
		c0,0.17-0.11,0.27-0.36,0.27c-1.09,0-3.34-1.29-3.34-3.59c0-3.81,4.02-5.79,9.26-5.79c4.63,0,7.2,2,7.2,4.97
		c0,2.72-2.43,4.83-4.81,5.6c1.16,0.82,1.04,5.05,2.23,5.05c0.43,0,0.73-0.25,0.93-0.25c0.11,0,0.2,0.11,0.2,0.22
		c0,0.58-1.32,2.77-3.09,2.77c-4.04,0-0.41-7.38-3.79-7.38C22.66,32.75,22.59,32.8,22.5,33.08z M27.88,26.14
		c0-1.62-1.16-2.41-1.86-2.41c-0.23,0-0.34,0.19-0.5,0.55c-0.5,1.04-1.48,3.84-2.22,6.12c-0.07,0.19-0.07,0.3-0.07,0.41
		c0,0.22,0.16,0.3,0.43,0.3C25.9,31.1,27.88,28.58,27.88,26.14z"/>
	<path d="M38.76,37.13c-1.84,0-2.57-1.54-2.72-1.54c-0.27,0-1.43,1.54-3.5,1.54c-1.16,0-1.88-0.93-1.88-2.47c0-3.57,3-7.44,6.7-7.44
		c1.95,0,3.36,1.37,3.36,2c0,0.52-1.77,2.96-1.77,6.34c0,0.82,0.16,0.91,0.16,1.23C39.1,36.99,38.99,37.13,38.76,37.13z M33.95,34
		c0,0.27,0.14,0.49,0.41,0.49c1.2,0,3.09-4.47,3.09-5.08c0-0.25-0.09-0.36-0.27-0.36C35.78,29.06,33.95,32.22,33.95,34z"/>
	<path d="M53.34,36c0,1.37,0.7,2.44,2.09,2.44c0.7,0,1.02-0.3,1.23-0.3c0.16,0,0.27,0.14,0.27,0.33c0,0.55-1.43,2.36-3.86,2.36
		c-1.88,0-3.43-1.51-3.43-3.73c0-3.21,2.11-5.84,2.11-6.94c0-0.25-0.11-0.41-0.36-0.41c-0.34,0-1.09,0.36-1.75,1.59
		c-0.79,1.48-1.61,3.95-1.61,5.13c0,0.41-0.07,0.66-0.43,0.66c-1.07,0-2.43-0.33-2.43-1.32c0-1.56,1.52-4.8,1.52-5.65
		c0-0.25-0.16-0.41-0.39-0.41c-0.34,0-0.7,0.19-1.36,1.43c-0.79,1.51-1.86,4.12-1.86,5.29c0,0.41-0.07,0.66-0.43,0.66
		c-1.07,0-2.54-0.33-2.54-1.32c0-1.98,2.07-5.93,2.07-8.12c0-0.27,0.2-0.47,0.64-0.47c2.02,0,2.11,1.76,2.2,1.76
		c0.11,0,1.29-1.76,3.02-1.76c1.82,0,2.13,1.76,2.22,1.76s1.45-1.76,3.2-1.76c1.14,0,1.73,0.71,1.73,1.81
		C55.18,30.9,53.34,33.34,53.34,36z"/>
	<path d="M57.67,36.47c0,0.41-0.07,0.66-0.43,0.66c-1.07,0-2.54-0.33-2.54-1.32c0-1.98,2.27-5.93,2.27-8.12
		c0-0.27,0.2-0.47,0.63-0.47c1.36,0,2.2,1.23,2.2,2C59.81,30.82,57.67,34.39,57.67,36.47z M60.31,21.79c0.82,0,1.43,0.63,1.43,1.65
		c0,1.4-0.89,2.72-1.93,2.72c-0.79,0-1.5-0.63-1.5-1.62C58.31,23.11,59.2,21.79,60.31,21.79z"/>
	<path d="M67.26,27.22c0.7,0,1.16,0.49,1.16,1.4c0,1.43-1.48,3.37-2.13,3.37c-0.23,0-0.32-0.11-0.36-0.33
		c-0.11-0.44-0.09-1.43-0.64-1.43c-0.25,0-0.66,0.3-1.04,1.07c-0.75,1.45-1.59,4.28-1.59,5.16c0,0.41-0.07,0.66-0.43,0.66
		c-1.07,0-2.54-0.33-2.54-1.32c0-1.98,2.09-5.93,2.09-8.12c0-0.27,0.2-0.47,0.63-0.47c2.02,0,2,1.76,2.09,1.76
		C64.58,28.98,65.71,27.22,67.26,27.22z"/>
	<path d="M75.18,33.37c0.18,0,0.36,0.22,0.36,0.47c0,0.49-1.29,3.35-4.86,3.35c-1.54,0-2.84-1.13-2.84-3.13
		c0-3.4,3.06-6.83,6.18-6.83c1.75,0,2.43,1.1,2.43,2.17c0,2.11-2.86,3.87-4.9,4.33c0.14,0.58,0.5,0.91,1.16,0.91
		C74.25,34.63,74.84,33.37,75.18,33.37z M71.57,32.16c1.48-0.49,2.7-1.78,2.7-2.63c0-0.33-0.16-0.47-0.39-0.47
		C73.16,29.06,71.93,30.49,71.57,32.16z"/>
	<path d="M83.08,27.77c0.95,0,1.41-0.3,1.7-0.3c0.23,0,0.34,0.19,0.34,0.44c0,0.22-0.54,2.52-1.66,3.68
		c-1.32,1.37-3.72,2.36-3.72,2.77c0,0.11,0.07,0.16,0.16,0.16c3.41,0,3.56-0.88,3.95-0.88c0.16,0,0.27,0.19,0.27,0.52
		c0,1.4-1.07,3.07-2.79,3.07c-1.23,0-2.36-0.63-3.5-0.63c-0.73,0-1.27,0.3-1.57,0.3c-0.18,0-0.25-0.25-0.25-0.44
		c0-1.51,0.3-2.58,1.36-3.57c1-0.93,4.11-2.36,4.11-2.52c0-0.06-0.02-0.14-0.11-0.14c-3.25,0-3.22,0.47-3.66,0.47
		c-0.16,0-0.25-0.14-0.25-0.38c0-1.65,0.91-3.1,2.09-3.1C80.59,27.22,81.79,27.77,83.08,27.77z"/>
</g>
<rect x="48.41" y="16.92" width="36.71" height="1.17"/>
<rect x="2.53" y="32.78" transform="matrix(6.123234e-17 -1 1 6.123234e-17 -23.4975 43.3651)" width="14.8" height="1.31"/>
</svg>
